<svg id="my-svg" width="100%" xmlns="http://www.w3.org/2000/svg" xmlns:xlink="http://www.w3.org/1999/xlink" class="flowchart" style="max-width: 1687.45px; background-color: white;" viewBox="0 0 1687.4453125 1449" role="graphics-document document" aria-roledescription="flowchart-v2"><style>#my-svg{font-family:"trebuchet ms",verdana,arial,sans-serif;font-size:16px;fill:#333;}@keyframes edge-animation-frame{from{stroke-dashoffset:0;}}@keyframes dash{to{stroke-dashoffset:0;}}#my-svg .edge-animation-slow{stroke-dasharray:9,5!important;stroke-dashoffset:900;animation:dash 50s linear infinite;stroke-linecap:round;}#my-svg .edge-animation-fast{stroke-dasharray:9,5!important;stroke-dashoffset:900;animation:dash 20s linear infinite;stroke-linecap:round;}#my-svg .error-icon{fill:#552222;}#my-svg .error-text{fill:#552222;stroke:#552222;}#my-svg .edge-thickness-normal{stroke-width:1px;}#my-svg .edge-thickness-thick{stroke-width:3.5px;}#my-svg .edge-pattern-solid{stroke-dasharray:0;}#my-svg .edge-thickness-invisible{stroke-width:0;fill:none;}#my-svg .edge-pattern-dashed{stroke-dasharray:3;}#my-svg .edge-pattern-dotted{stroke-dasharray:2;}#my-svg .marker{fill:#333333;stroke:#333333;}#my-svg .marker.cross{stroke:#333333;}#my-svg svg{font-family:"trebuchet ms",verdana,arial,sans-serif;font-size:16px;}#my-svg p{margin:0;}#my-svg .label{font-family:"trebuchet ms",verdana,arial,sans-serif;color:#333;}#my-svg .cluster-label text{fill:#333;}#my-svg .cluster-label span{color:#333;}#my-svg .cluster-label span p{background-color:transparent;}#my-svg .label text,#my-svg span{fill:#333;color:#333;}#my-svg .node rect,#my-svg .node circle,#my-svg .node ellipse,#my-svg .node polygon,#my-svg .node path{fill:#ECECFF;stroke:#9370DB;stroke-width:1px;}#my-svg .rough-node .label text,#my-svg .node .label text,#my-svg .image-shape .label,#my-svg .icon-shape .label{text-anchor:middle;}#my-svg .node .katex path{fill:#000;stroke:#000;stroke-width:1px;}#my-svg .rough-node .label,#my-svg .node .label,#my-svg .image-shape .label,#my-svg .icon-shape .label{text-align:center;}#my-svg .node.clickable{cursor:pointer;}#my-svg .root .anchor path{fill:#333333!important;stroke-width:0;stroke:#333333;}#my-svg .arrowheadPath{fill:#333333;}#my-svg .edgePath .path{stroke:#333333;stroke-width:2.0px;}#my-svg .flowchart-link{stroke:#333333;fill:none;}#my-svg .edgeLabel{background-color:rgba(232,232,232, 0.8);text-align:center;}#my-svg .edgeLabel p{background-color:rgba(232,232,232, 0.8);}#my-svg .edgeLabel rect{opacity:0.5;background-color:rgba(232,232,232, 0.8);fill:rgba(232,232,232, 0.8);}#my-svg .labelBkg{background-color:rgba(232, 232, 232, 0.5);}#my-svg .cluster rect{fill:#ffffde;stroke:#aaaa33;stroke-width:1px;}#my-svg .cluster text{fill:#333;}#my-svg .cluster span{color:#333;}#my-svg div.mermaidTooltip{position:absolute;text-align:center;max-width:200px;padding:2px;font-family:"trebuchet ms",verdana,arial,sans-serif;font-size:12px;background:hsl(80, 100%, 96.2745098039%);border:1px solid #aaaa33;border-radius:2px;pointer-events:none;z-index:100;}#my-svg .flowchartTitleText{text-anchor:middle;font-size:18px;fill:#333;}#my-svg rect.text{fill:none;stroke-width:0;}#my-svg .icon-shape,#my-svg .image-shape{background-color:rgba(232,232,232, 0.8);text-align:center;}#my-svg .icon-shape p,#my-svg .image-shape p{background-color:rgba(232,232,232, 0.8);padding:2px;}#my-svg .icon-shape .label rect,#my-svg .image-shape .label rect{opacity:0.5;background-color:rgba(232,232,232, 0.8);fill:rgba(232,232,232, 0.8);}#my-svg .label-icon{display:inline-block;height:1em;overflow:visible;vertical-align:-0.125em;}#my-svg .node .label-icon path{fill:currentColor;stroke:revert;stroke-width:revert;}#my-svg :root{--mermaid-font-family:"trebuchet ms",verdana,arial,sans-serif;}</style><g><marker id="my-svg_flowchart-v2-pointEnd" class="marker flowchart-v2" viewBox="0 0 10 10" refX="5" refY="5" markerUnits="userSpaceOnUse" markerWidth="8" markerHeight="8" orient="auto"><path d="M 0 0 L 10 5 L 0 10 z" class="arrowMarkerPath" style="stroke-width: 1; stroke-dasharray: 1, 0;"/></marker><marker id="my-svg_flowchart-v2-pointStart" class="marker flowchart-v2" viewBox="0 0 10 10" refX="4.5" refY="5" markerUnits="userSpaceOnUse" markerWidth="8" markerHeight="8" orient="auto"><path d="M 0 5 L 10 10 L 10 0 z" class="arrowMarkerPath" style="stroke-width: 1; stroke-dasharray: 1, 0;"/></marker><marker id="my-svg_flowchart-v2-circleEnd" class="marker flowchart-v2" viewBox="0 0 10 10" refX="11" refY="5" markerUnits="userSpaceOnUse" markerWidth="11" markerHeight="11" orient="auto"><circle cx="5" cy="5" r="5" class="arrowMarkerPath" style="stroke-width: 1; stroke-dasharray: 1, 0;"/></marker><marker id="my-svg_flowchart-v2-circleStart" class="marker flowchart-v2" viewBox="0 0 10 10" refX="-1" refY="5" markerUnits="userSpaceOnUse" markerWidth="11" markerHeight="11" orient="auto"><circle cx="5" cy="5" r="5" class="arrowMarkerPath" style="stroke-width: 1; stroke-dasharray: 1, 0;"/></marker><marker id="my-svg_flowchart-v2-crossEnd" class="marker cross flowchart-v2" viewBox="0 0 11 11" refX="12" refY="5.2" markerUnits="userSpaceOnUse" markerWidth="11" markerHeight="11" orient="auto"><path d="M 1,1 l 9,9 M 10,1 l -9,9" class="arrowMarkerPath" style="stroke-width: 2; stroke-dasharray: 1, 0;"/></marker><marker id="my-svg_flowchart-v2-crossStart" class="marker cross flowchart-v2" viewBox="0 0 11 11" refX="-1" refY="5.2" markerUnits="userSpaceOnUse" markerWidth="11" markerHeight="11" orient="auto"><path d="M 1,1 l 9,9 M 10,1 l -9,9" class="arrowMarkerPath" style="stroke-width: 2; stroke-dasharray: 1, 0;"/></marker><g class="root"><g class="clusters"><g class="cluster subEarth" id="Landfill" data-look="classic"><rect style="" x="191.1953125" y="1134" width="1088.5390625" height="307"/><g class="cluster-label" transform="translate(708.42578125, 1134)"><foreignObject width="54.078125" height="24"><div xmlns="http://www.w3.org/1999/xhtml" style="display: table-cell; white-space: nowrap; line-height: 1.5;"><span class="nodeLabel"><p>Landfill</p></span></div></foreignObject></g></g><g class="cluster subSpace" id="space02" data-look="classic"><rect style="" x="1299.734375" y="905" width="379.7109375" height="536"/><g class="cluster-label" transform="translate(1489.58984375, 905)"><foreignObject width="0" height="0"><div xmlns="http://www.w3.org/1999/xhtml" style="display: table-cell; white-space: nowrap; line-height: 1.5;"><span class="nodeLabel"></span></div></foreignObject></g></g><g class="cluster subCanyon" id="Municipal" data-look="classic"><rect style="" x="8" y="296" width="327.6484375" height="788"/><g class="cluster-label" transform="translate(137.86328125, 296)"><foreignObject width="67.921875" height="24"><div xmlns="http://www.w3.org/1999/xhtml" style="display: table-cell; white-space: nowrap; line-height: 1.5;"><span class="nodeLabel"><p>Municipal</p></span></div></foreignObject></g></g><g class="cluster subSpace" id="space01" data-look="classic"><rect style="" x="355.6484375" y="8" width="1234.5703125" height="823"/><g class="cluster-label" transform="translate(972.93359375, 8)"><foreignObject width="0" height="0"><div xmlns="http://www.w3.org/1999/xhtml" style="display: table-cell; white-space: nowrap; line-height: 1.5;"><span class="nodeLabel"></span></div></foreignObject></g></g><g class="cluster subSpace" id="space4" data-look="classic"><rect style="" x="211.1953125" y="1159" width="1048.5390625" height="257"/><g class="cluster-label" transform="translate(735.46484375, 1159)"><foreignObject width="0" height="0"><div xmlns="http://www.w3.org/1999/xhtml" style="display: table-cell; white-space: nowrap; line-height: 1.5;"><span class="nodeLabel"></span></div></foreignObject></g></g><g class="cluster subBush" id="Resource_Recovery" data-look="classic"><rect style="" x="1319.734375" y="930" width="339.7109375" height="486"/><g class="cluster-label" transform="translate(1417.21484375, 930)"><foreignObject width="144.75" height="24"><div xmlns="http://www.w3.org/1999/xhtml" style="display: table-cell; white-space: nowrap; line-height: 1.5;"><span class="nodeLabel"><p>Resource&amp;Recovery</p></span></div></foreignObject></g></g><g class="cluster subSpace" id="space3" data-look="classic"><rect style="" x="1339.734375" y="955" width="299.7109375" height="436"/><g class="cluster-label" transform="translate(1489.58984375, 955)"><foreignObject width="0" height="0"><div xmlns="http://www.w3.org/1999/xhtml" style="display: table-cell; white-space: nowrap; line-height: 1.5;"><span class="nodeLabel"></span></div></foreignObject></g></g><g class="cluster subSpace" id="space1" data-look="classic"><rect style="" x="28" y="321" width="287.6484375" height="738"/><g class="cluster-label" transform="translate(171.82421875, 321)"><foreignObject width="0" height="0"><div xmlns="http://www.w3.org/1999/xhtml" style="display: table-cell; white-space: nowrap; line-height: 1.5;"><span class="nodeLabel"></span></div></foreignObject></g></g><g class="cluster subMountains" id="Domestic_Commercial" data-look="classic"><rect style="" x="375.6484375" y="33" width="1194.5703125" height="773"/><g class="cluster-label" transform="translate(893.24609375, 33)"><foreignObject width="159.375" height="24"><div xmlns="http://www.w3.org/1999/xhtml" style="display: table-cell; white-space: nowrap; line-height: 1.5;"><span class="nodeLabel"><p>Domestic/Commercial</p></span></div></foreignObject></g></g><g class="cluster subSpace" id="space2" data-look="classic"><rect style="" x="395.6484375" y="58" width="1154.5703125" height="723"/><g class="cluster-label" transform="translate(972.93359375, 58)"><foreignObject width="0" height="0"><div xmlns="http://www.w3.org/1999/xhtml" style="display: table-cell; white-space: nowrap; line-height: 1.5;"><span class="nodeLabel"></span></div></foreignObject></g></g><g class="cluster subSub" id="SVA" data-look="classic"><rect style="" x="589.7265625" y="346" width="940.4921875" height="282"/><g class="cluster-label" transform="translate(993.90625, 346)"><foreignObject width="132.1328125" height="24"><div xmlns="http://www.w3.org/1999/xhtml" style="display: table-cell; white-space: nowrap; line-height: 1.5;"><span class="nodeLabel"><p>Small Vehicle Area</p></span></div></foreignObject></g></g><g class="cluster subSub" id="Gatehouse" data-look="classic"><rect style="" x="415.6484375" y="83" width="581.470703125" height="139"/><g class="cluster-label" transform="translate(668.5986328125, 83)"><foreignObject width="75.5703125" height="24"><div xmlns="http://www.w3.org/1999/xhtml" style="display: table-cell; white-space: nowrap; line-height: 1.5;"><span class="nodeLabel"><p>Gatehouse</p></span></div></foreignObject></g></g><g class="cluster subSpace" id="space2.2" data-look="classic"><rect style="" x="609.7265625" y="371" width="900.4921875" height="232"/><g class="cluster-label" transform="translate(1059.97265625, 371)"><foreignObject width="0" height="0"><div xmlns="http://www.w3.org/1999/xhtml" style="display: table-cell; white-space: nowrap; line-height: 1.5;"><span class="nodeLabel"></span></div></foreignObject></g></g><g class="cluster subSpace" id="space2.1" data-look="classic"><rect style="" x="435.6484375" y="108" width="541.470703125" height="89"/><g class="cluster-label" transform="translate(706.3837890625, 108)"><foreignObject width="0" height="0"><div xmlns="http://www.w3.org/1999/xhtml" style="display: table-cell; white-space: nowrap; line-height: 1.5;"><span class="nodeLabel"></span></div></foreignObject></g></g></g><g class="edgePaths"><path d="M662.07,168.687L641.355,173.406C620.64,178.125,579.211,187.562,558.496,196.448C537.781,205.333,537.781,213.667,537.781,224C537.781,234.333,537.781,246.667,537.781,259C537.781,271.333,537.781,283.667,537.781,294C537.781,304.333,537.781,312.667,537.781,321C537.781,329.333,537.781,337.667,537.781,346C537.781,354.333,537.781,362.667,537.781,375.5C537.781,388.333,537.781,405.667,537.781,425C537.781,444.333,537.781,465.667,537.781,487C537.781,508.333,537.781,529.667,537.781,549C537.781,568.333,537.781,585.667,537.781,598.5C537.781,611.333,537.781,619.667,537.781,630C537.781,640.333,537.781,652.667,555.247,665.151C572.712,677.636,607.643,690.271,625.108,696.589L642.574,702.907" id="L_B2_C2_0" class="edge-thickness-normal edge-pattern-solid edge-thickness-normal edge-pattern-solid flowchart-link" style=";" data-edge="true" data-et="edge" data-id="L_B2_C2_0" data-points="W3sieCI6NjYyLjA2OTk5MzkzMTc2MTIsInkiOjE2OC42ODY4NjI4NjM1MjIzOH0seyJ4Ijo1MzcuNzgxMjUsInkiOjE5N30seyJ4Ijo1MzcuNzgxMjUsInkiOjIyMn0seyJ4Ijo1MzcuNzgxMjUsInkiOjI1OX0seyJ4Ijo1MzcuNzgxMjUsInkiOjI5Nn0seyJ4Ijo1MzcuNzgxMjUsInkiOjMyMX0seyJ4Ijo1MzcuNzgxMjUsInkiOjM0Nn0seyJ4Ijo1MzcuNzgxMjUsInkiOjM3MX0seyJ4Ijo1MzcuNzgxMjUsInkiOjQyM30seyJ4Ijo1MzcuNzgxMjUsInkiOjQ4N30seyJ4Ijo1MzcuNzgxMjUsInkiOjU1MX0seyJ4Ijo1MzcuNzgxMjUsInkiOjYwM30seyJ4Ijo1MzcuNzgxMjUsInkiOjYyOH0seyJ4Ijo1MzcuNzgxMjUsInkiOjY2NX0seyJ4Ijo2NDYuMzM1MTA5ODU3ODQxMiwieSI6NzA0LjI2Nzg3NTk2NTY4MjR9XQ==" marker-end="url(#my-svg_flowchart-v2-pointEnd)"/><path d="M796.548,169.31L815.79,173.925C835.032,178.54,873.516,187.77,892.758,196.552C912,205.333,912,213.667,912,224C912,234.333,912,246.667,912,259C912,271.333,912,283.667,912,294C912,304.333,912,312.667,912,321C912,329.333,912,337.667,912,346C912,354.333,912,362.667,912.073,371.667C912.146,380.667,912.293,390.334,912.366,395.167L912.439,400" id="L_B2_E2_0" class="edge-thickness-normal edge-pattern-solid edge-thickness-normal edge-pattern-solid flowchart-link" style=";" data-edge="true" data-et="edge" data-id="L_B2_E2_0" data-points="W3sieCI6Nzk2LjU0ODM2MjE4OTEyMzQsInkiOjE2OS4zMDk1MjU2MjE3NTMyN30seyJ4Ijo5MTIsInkiOjE5N30seyJ4Ijo5MTIsInkiOjIyMn0seyJ4Ijo5MTIsInkiOjI1OX0seyJ4Ijo5MTIsInkiOjI5Nn0seyJ4Ijo5MTIsInkiOjMyMX0seyJ4Ijo5MTIsInkiOjM0Nn0seyJ4Ijo5MTIsInkiOjM3MX0seyJ4Ijo5MTIuNSwieSI6NDA0fV0=" marker-end="url(#my-svg_flowchart-v2-pointEnd)"/><path d="M841.565,443L814.502,450.333C787.439,457.667,733.313,472.333,706.25,490.333C679.188,508.333,679.188,529.667,679.188,549C679.188,568.333,679.188,585.667,679.188,598.5C679.188,611.333,679.188,619.667,679.188,630C679.188,640.333,679.188,652.667,682.498,664.507C685.808,676.348,692.428,687.697,695.738,693.371L699.048,699.045" id="L_E2_C2_0" class="edge-thickness-normal edge-pattern-solid edge-thickness-normal edge-pattern-solid flowchart-link" style=";" data-edge="true" data-et="edge" data-id="L_E2_C2_0" data-points="W3sieCI6ODQxLjU2NDk0MTQwNjI1LCJ5Ijo0NDN9LHsieCI6Njc5LjE4NzUsInkiOjQ4N30seyJ4Ijo2NzkuMTg3NSwieSI6NTUxfSx7IngiOjY3OS4xODc1LCJ5Ijo2MDN9LHsieCI6Njc5LjE4NzUsInkiOjYyOH0seyJ4Ijo2NzkuMTg3NSwieSI6NjY1fSx7IngiOjcwMS4wNjM0NDYwNDQ5MjE5LCJ5Ijo3MDIuNX1d" marker-end="url(#my-svg_flowchart-v2-pointEnd)"/><path d="M816.25,578L816.25,582.167C816.25,586.333,816.25,594.667,816.25,603C816.25,611.333,816.25,619.667,816.25,630C816.25,640.333,816.25,652.667,807.247,664.719C798.245,676.77,780.24,688.541,771.237,694.426L762.235,700.311" id="L_F2_C2_0" class="edge-thickness-normal edge-pattern-solid edge-thickness-normal edge-pattern-solid flowchart-link" style=";" data-edge="true" data-et="edge" data-id="L_F2_C2_0" data-points="W3sieCI6ODE2LjI1LCJ5Ijo1Nzh9LHsieCI6ODE2LjI1LCJ5Ijo2MDN9LHsieCI6ODE2LjI1LCJ5Ijo2Mjh9LHsieCI6ODE2LjI1LCJ5Ijo2NjV9LHsieCI6NzU4Ljg4NjY4ODIzMjQyMTksInkiOjcwMi41fV0=" marker-end="url(#my-svg_flowchart-v2-pointEnd)"/><path d="M993.711,442.866L1024.823,450.222C1055.935,457.577,1118.158,472.289,1149.269,485.144C1180.381,498,1180.381,509,1180.381,514.5L1180.381,520" id="L_E2_F1_0" class="edge-thickness-normal edge-pattern-solid edge-thickness-normal edge-pattern-solid flowchart-link" style=";" data-edge="true" data-et="edge" data-id="L_E2_F1_0" data-points="W3sieCI6OTkzLjcxMTQwNzYxMTM5MDIsInkiOjQ0Mi44NjYyNDcyNzcyMTk2Nn0seyJ4IjoxMTgwLjM4MDg1OTM3NSwieSI6NDg3fSx7IngiOjExODAuMzgwODU5Mzc1LCJ5Ijo1MjR9XQ==" marker-end="url(#my-svg_flowchart-v2-pointEnd)"/><path d="M883.326,443L872.147,450.333C860.967,457.667,838.609,472.333,827.429,485.167C816.25,498,816.25,509,816.25,514.5L816.25,520" id="L_E2_F2_0" class="edge-thickness-normal edge-pattern-solid edge-thickness-normal edge-pattern-solid flowchart-link" style=";" data-edge="true" data-et="edge" data-id="L_E2_F2_0" data-points="W3sieCI6ODgzLjMyNjE3MTg3NSwieSI6NDQzfSx7IngiOjgxNi4yNSwieSI6NDg3fSx7IngiOjgxNi4yNSwieSI6NTI0fV0=" marker-end="url(#my-svg_flowchart-v2-pointEnd)"/><path d="M175.877,450L175.877,456.167C175.877,462.333,175.877,474.667,175.877,486.333C175.877,498,175.877,509,175.877,514.5L175.877,520" id="L_AA1_A1_0" class="edge-thickness-normal edge-pattern-solid edge-thickness-normal edge-pattern-solid flowchart-link" style=";" data-edge="true" data-et="edge" data-id="L_AA1_A1_0" data-points="W3sieCI6MTc1Ljg3Njk1MzEyNSwieSI6NDUwfSx7IngiOjE3NS44NzY5NTMxMjUsInkiOjQ4N30seyJ4IjoxNzUuODc2OTUzMTI1LCJ5Ijo1MjR9XQ==" marker-end="url(#my-svg_flowchart-v2-pointEnd)"/><path d="M175.877,578L175.877,582.167C175.877,586.333,175.877,594.667,175.877,603C175.877,611.333,175.877,619.667,175.877,630C175.877,640.333,175.877,652.667,175.953,665.667C176.029,678.667,176.181,692.333,176.257,699.167L176.333,706" id="L_A1_B1_0" class="edge-thickness-normal edge-pattern-solid edge-thickness-normal edge-pattern-solid flowchart-link" style=";" data-edge="true" data-et="edge" data-id="L_A1_B1_0" data-points="W3sieCI6MTc1Ljg3Njk1MzEyNSwieSI6NTc4fSx7IngiOjE3NS44NzY5NTMxMjUsInkiOjYwM30seyJ4IjoxNzUuODc2OTUzMTI1LCJ5Ijo2Mjh9LHsieCI6MTc1Ljg3Njk1MzEyNSwieSI6NjY1fSx7IngiOjE3Ni4zNzY5NTMxMjUsInkiOjcxMH1d" marker-end="url(#my-svg_flowchart-v2-pointEnd)"/><path d="M169.587,749L167.618,754.333C165.649,759.667,161.71,770.333,159.741,779.833C157.771,789.333,157.771,797.667,157.771,806C157.771,814.333,157.771,822.667,157.771,833C157.771,843.333,157.771,855.667,157.771,868C157.771,880.333,157.771,892.667,157.771,903C157.771,913.333,157.771,921.667,157.771,930C157.771,938.333,157.771,946.667,157.842,954.417C157.912,962.167,158.053,969.334,158.123,972.917L158.193,976.501" id="L_B1_C1_0" class="edge-thickness-normal edge-pattern-solid edge-thickness-normal edge-pattern-solid flowchart-link" style=";" data-edge="true" data-et="edge" data-id="L_B1_C1_0" data-points="W3sieCI6MTY5LjU4NzQwMjM0Mzc1LCJ5Ijo3NDl9LHsieCI6MTU3Ljc3MTQ4NDM3NSwieSI6NzgxfSx7IngiOjE1Ny43NzE0ODQzNzUsInkiOjgwNn0seyJ4IjoxNTcuNzcxNDg0Mzc1LCJ5Ijo4MzF9LHsieCI6MTU3Ljc3MTQ4NDM3NSwieSI6ODY4fSx7IngiOjE1Ny43NzE0ODQzNzUsInkiOjkwNX0seyJ4IjoxNTcuNzcxNDg0Mzc1LCJ5Ijo5MzB9LHsieCI6MTU3Ljc3MTQ4NDM3NSwieSI6OTU1fSx7IngiOjE1OC4yNzE0ODQzNzUsInkiOjk4MC41fV0=" marker-end="url(#my-svg_flowchart-v2-pointEnd)"/><path d="M997.81,434.67L1064.976,443.391C1132.142,452.113,1266.474,469.557,1333.64,488.945C1400.807,508.333,1400.807,529.667,1400.807,549C1400.807,568.333,1400.807,585.667,1400.807,598.5C1400.807,611.333,1400.807,619.667,1400.807,630C1400.807,640.333,1400.807,652.667,1400.807,669.5C1400.807,686.333,1400.807,707.667,1400.807,727C1400.807,746.333,1400.807,763.667,1400.807,776.5C1400.807,789.333,1400.807,797.667,1400.807,806C1400.807,814.333,1400.807,822.667,1400.807,833C1400.807,843.333,1400.807,855.667,1400.807,868C1400.807,880.333,1400.807,892.667,1400.807,903C1400.807,913.333,1400.807,921.667,1400.807,930C1400.807,938.333,1400.807,946.667,1406.803,954.643C1412.8,962.618,1424.793,970.237,1430.79,974.046L1436.787,977.855" id="L_E2_F3_0" class="edge-thickness-normal edge-pattern-solid edge-thickness-normal edge-pattern-solid flowchart-link" style=";" data-edge="true" data-et="edge" data-id="L_E2_F3_0" data-points="W3sieCI6OTk3LjgwOTY4NTAyNjYzMTEsInkiOjQzNC42Njk2OTI0NDY3Mzc5fSx7IngiOjE0MDAuODA2NjQwNjI1LCJ5Ijo0ODd9LHsieCI6MTQwMC44MDY2NDA2MjUsInkiOjU1MX0seyJ4IjoxNDAwLjgwNjY0MDYyNSwieSI6NjAzfSx7IngiOjE0MDAuODA2NjQwNjI1LCJ5Ijo2Mjh9LHsieCI6MTQwMC44MDY2NDA2MjUsInkiOjY2NX0seyJ4IjoxNDAwLjgwNjY0MDYyNSwieSI6NzI5fSx7IngiOjE0MDAuODA2NjQwNjI1LCJ5Ijo3ODF9LHsieCI6MTQwMC44MDY2NDA2MjUsInkiOjgwNn0seyJ4IjoxNDAwLjgwNjY0MDYyNSwieSI6ODMxfSx7IngiOjE0MDAuODA2NjQwNjI1LCJ5Ijo4Njh9LHsieCI6MTQwMC44MDY2NDA2MjUsInkiOjkwNX0seyJ4IjoxNDAwLjgwNjY0MDYyNSwieSI6OTMwfSx7IngiOjE0MDAuODA2NjQwNjI1LCJ5Ijo5NTV9LHsieCI6MTQ0MC4xNjMwNDgzNzc0MDM4LCJ5Ijo5ODB9XQ==" marker-end="url(#my-svg_flowchart-v2-pointEnd)"/><path d="M1293.275,570.038L1325.853,575.532C1358.43,581.025,1423.584,592.013,1456.161,601.673C1488.738,611.333,1488.738,619.667,1488.738,630C1488.738,640.333,1488.738,652.667,1488.738,669.5C1488.738,686.333,1488.738,707.667,1488.738,727C1488.738,746.333,1488.738,763.667,1488.738,776.5C1488.738,789.333,1488.738,797.667,1488.738,806C1488.738,814.333,1488.738,822.667,1488.738,833C1488.738,843.333,1488.738,855.667,1488.738,868C1488.738,880.333,1488.738,892.667,1488.738,903C1488.738,913.333,1488.738,921.667,1488.738,930C1488.738,938.333,1488.738,946.667,1488.329,954.338C1487.92,962.009,1487.102,969.018,1486.693,972.522L1486.284,976.027" id="L_F1_F3_0" class="edge-thickness-normal edge-pattern-solid edge-thickness-normal edge-pattern-solid flowchart-link" style=";" data-edge="true" data-et="edge" data-id="L_F1_F3_0" data-points="W3sieCI6MTI5My4yNzUzOTA2MjUsInkiOjU3MC4wMzgwMjI3ODk2MDQ3fSx7IngiOjE0ODguNzM4MjgxMjUsInkiOjYwM30seyJ4IjoxNDg4LjczODI4MTI1LCJ5Ijo2Mjh9LHsieCI6MTQ4OC43MzgyODEyNSwieSI6NjY1fSx7IngiOjE0ODguNzM4MjgxMjUsInkiOjcyOX0seyJ4IjoxNDg4LjczODI4MTI1LCJ5Ijo3ODF9LHsieCI6MTQ4OC43MzgyODEyNSwieSI6ODA2fSx7IngiOjE0ODguNzM4MjgxMjUsInkiOjgzMX0seyJ4IjoxNDg4LjczODI4MTI1LCJ5Ijo4Njh9LHsieCI6MTQ4OC43MzgyODEyNSwieSI6OTA1fSx7IngiOjE0ODguNzM4MjgxMjUsInkiOjkzMH0seyJ4IjoxNDg4LjczODI4MTI1LCJ5Ijo5NTV9LHsieCI6MTQ4NS44MTk4NjE3Nzg4NDYyLCJ5Ijo5ODB9XQ==" marker-end="url(#my-svg_flowchart-v2-pointEnd)"/><path d="M1482.668,1034L1482.668,1038.167C1482.668,1042.333,1482.668,1050.667,1482.668,1059C1482.668,1067.333,1482.668,1075.667,1482.668,1084C1482.668,1092.333,1482.668,1100.667,1482.668,1109C1482.668,1117.333,1482.668,1125.667,1482.668,1134C1482.668,1142.333,1482.668,1150.667,1482.741,1159.667C1482.814,1168.667,1482.961,1178.334,1483.034,1183.167L1483.107,1188" id="L_F3_G2_0" class="edge-thickness-normal edge-pattern-solid edge-thickness-normal edge-pattern-solid flowchart-link" style=";" data-edge="true" data-et="edge" data-id="L_F3_G2_0" data-points="W3sieCI6MTQ4Mi42Njc5Njg3NSwieSI6MTAzNH0seyJ4IjoxNDgyLjY2Nzk2ODc1LCJ5IjoxMDU5fSx7IngiOjE0ODIuNjY3OTY4NzUsInkiOjEwODR9LHsieCI6MTQ4Mi42Njc5Njg3NSwieSI6MTEwOX0seyJ4IjoxNDgyLjY2Nzk2ODc1LCJ5IjoxMTM0fSx7IngiOjE0ODIuNjY3OTY4NzUsInkiOjExNTl9LHsieCI6MTQ4My4xNjc5Njg3NSwieSI6MTE5Mn1d" marker-end="url(#my-svg_flowchart-v2-pointEnd)"/><path d="M1488.125,1231L1489.927,1238.333C1491.729,1245.667,1495.333,1260.333,1497.21,1273.25C1499.086,1286.167,1499.235,1297.334,1499.31,1302.917L1499.384,1308.5" id="L_G2_H2_0" class="edge-thickness-normal edge-pattern-solid edge-thickness-normal edge-pattern-solid flowchart-link" style=";" data-edge="true" data-et="edge" data-id="L_G2_H2_0" data-points="W3sieCI6MTQ4OC4xMjUwOTE1NTI3MzQ0LCJ5IjoxMjMxfSx7IngiOjE0OTguOTM3NSwieSI6MTI3NX0seyJ4IjoxNDk5LjQzNzUsInkiOjEzMTIuNX1d" marker-end="url(#my-svg_flowchart-v2-pointEnd)"/><path d="M216.563,749L227.643,754.333C238.723,759.667,260.882,770.333,271.961,779.833C283.041,789.333,283.041,797.667,283.041,806C283.041,814.333,283.041,822.667,283.041,833C283.041,843.333,283.041,855.667,283.041,868C283.041,880.333,283.041,892.667,283.041,903C283.041,913.333,283.041,921.667,283.041,930C283.041,938.333,283.041,946.667,283.041,959.5C283.041,972.333,283.041,989.667,283.041,1007C283.041,1024.333,283.041,1041.667,283.041,1054.5C283.041,1067.333,283.041,1075.667,283.041,1084C283.041,1092.333,283.041,1100.667,283.041,1109C283.041,1117.333,283.041,1125.667,283.041,1134C283.041,1142.333,283.041,1150.667,283.041,1163.5C283.041,1176.333,283.041,1193.667,283.041,1213C283.041,1232.333,283.041,1253.667,390.601,1273.92C498.161,1294.174,713.281,1313.348,820.841,1322.935L928.401,1332.522" id="L_B1_J1_0" class="edge-thickness-normal edge-pattern-solid edge-thickness-normal edge-pattern-solid flowchart-link" style=";" data-edge="true" data-et="edge" data-id="L_B1_J1_0" data-points="W3sieCI6MjE2LjU2MzQ3NjU2MjUsInkiOjc0OX0seyJ4IjoyODMuMDQxMDE1NjI1LCJ5Ijo3ODF9LHsieCI6MjgzLjA0MTAxNTYyNSwieSI6ODA2fSx7IngiOjI4My4wNDEwMTU2MjUsInkiOjgzMX0seyJ4IjoyODMuMDQxMDE1NjI1LCJ5Ijo4Njh9LHsieCI6MjgzLjA0MTAxNTYyNSwieSI6OTA1fSx7IngiOjI4My4wNDEwMTU2MjUsInkiOjkzMH0seyJ4IjoyODMuMDQxMDE1NjI1LCJ5Ijo5NTV9LHsieCI6MjgzLjA0MTAxNTYyNSwieSI6MTAwN30seyJ4IjoyODMuMDQxMDE1NjI1LCJ5IjoxMDU5fSx7IngiOjI4My4wNDEwMTU2MjUsInkiOjEwODR9LHsieCI6MjgzLjA0MTAxNTYyNSwieSI6MTEwOX0seyJ4IjoyODMuMDQxMDE1NjI1LCJ5IjoxMTM0fSx7IngiOjI4My4wNDEwMTU2MjUsInkiOjExNTl9LHsieCI6MjgzLjA0MTAxNTYyNSwieSI6MTIxMX0seyJ4IjoyODMuMDQxMDE1NjI1LCJ5IjoxMjc1fSx7IngiOjkzMi4zODQ3NjU2MjUsInkiOjEzMzIuODc3Mzg4OTI0ODU0Nn1d" marker-end="url(#my-svg_flowchart-v2-pointEnd)"/><path d="M1067.486,568.896L1031.629,574.58C995.771,580.264,924.057,591.632,888.199,601.483C852.342,611.333,852.342,619.667,852.342,630C852.342,640.333,852.342,652.667,852.342,669.5C852.342,686.333,852.342,707.667,852.342,727C852.342,746.333,852.342,763.667,852.342,776.5C852.342,789.333,852.342,797.667,852.342,806C852.342,814.333,852.342,822.667,852.342,833C852.342,843.333,852.342,855.667,852.342,868C852.342,880.333,852.342,892.667,852.342,903C852.342,913.333,852.342,921.667,852.342,930C852.342,938.333,852.342,946.667,852.342,959.5C852.342,972.333,852.342,989.667,852.342,1007C852.342,1024.333,852.342,1041.667,852.342,1054.5C852.342,1067.333,852.342,1075.667,852.342,1084C852.342,1092.333,852.342,1100.667,852.342,1109C852.342,1117.333,852.342,1125.667,852.342,1134C852.342,1142.333,852.342,1150.667,852.342,1163.5C852.342,1176.333,852.342,1193.667,852.342,1213C852.342,1232.333,852.342,1253.667,866.061,1270.236C879.779,1286.806,907.217,1298.613,920.936,1304.516L934.655,1310.419" id="L_F1_J1_0" class="edge-thickness-normal edge-pattern-solid edge-thickness-normal edge-pattern-solid flowchart-link" style=";" data-edge="true" data-et="edge" data-id="L_F1_J1_0" data-points="W3sieCI6MTA2Ny40ODYzMjgxMjUsInkiOjU2OC44OTU3ODIyMjg2Nzl9LHsieCI6ODUyLjM0MTc5Njg3NSwieSI6NjAzfSx7IngiOjg1Mi4zNDE3OTY4NzUsInkiOjYyOH0seyJ4Ijo4NTIuMzQxNzk2ODc1LCJ5Ijo2NjV9LHsieCI6ODUyLjM0MTc5Njg3NSwieSI6NzI5fSx7IngiOjg1Mi4zNDE3OTY4NzUsInkiOjc4MX0seyJ4Ijo4NTIuMzQxNzk2ODc1LCJ5Ijo4MDZ9LHsieCI6ODUyLjM0MTc5Njg3NSwieSI6ODMxfSx7IngiOjg1Mi4zNDE3OTY4NzUsInkiOjg2OH0seyJ4Ijo4NTIuMzQxNzk2ODc1LCJ5Ijo5MDV9LHsieCI6ODUyLjM0MTc5Njg3NSwieSI6OTMwfSx7IngiOjg1Mi4zNDE3OTY4NzUsInkiOjk1NX0seyJ4Ijo4NTIuMzQxNzk2ODc1LCJ5IjoxMDA3fSx7IngiOjg1Mi4zNDE3OTY4NzUsInkiOjEwNTl9LHsieCI6ODUyLjM0MTc5Njg3NSwieSI6MTA4NH0seyJ4Ijo4NTIuMzQxNzk2ODc1LCJ5IjoxMTA5fSx7IngiOjg1Mi4zNDE3OTY4NzUsInkiOjExMzR9LHsieCI6ODUyLjM0MTc5Njg3NSwieSI6MTE1OX0seyJ4Ijo4NTIuMzQxNzk2ODc1LCJ5IjoxMjExfSx7IngiOjg1Mi4zNDE3OTY4NzUsInkiOjEyNzV9LHsieCI6OTM4LjMyODg1NzQyMTg3NSwieSI6MTMxMn1d" marker-end="url(#my-svg_flowchart-v2-pointEnd)"/><path d="M1459.689,1231L1450.676,1238.333C1441.663,1245.667,1423.636,1260.333,1359.308,1276.418C1294.979,1292.502,1184.349,1310.005,1129.034,1318.756L1073.718,1327.507" id="L_G2_J1_0" class="edge-thickness-normal edge-pattern-solid edge-thickness-normal edge-pattern-solid flowchart-link" style=";" data-edge="true" data-et="edge" data-id="L_G2_J1_0" data-points="W3sieCI6MTQ1OS42ODkxNzg0NjY3OTY5LCJ5IjoxMjMxfSx7IngiOjE0MDUuNjA5Mzc1LCJ5IjoxMjc1fSx7IngiOjEwNjkuNzY3NTc4MTI1LCJ5IjoxMzI4LjEzMjUzNjA1MzgwNDJ9XQ==" marker-end="url(#my-svg_flowchart-v2-pointEnd)"/><path d="M917.837,443L919.783,450.333C921.73,457.667,925.623,472.333,927.569,490.333C929.516,508.333,929.516,529.667,929.516,549C929.516,568.333,929.516,585.667,929.516,598.5C929.516,611.333,929.516,619.667,929.516,630C929.516,640.333,929.516,652.667,929.516,669.5C929.516,686.333,929.516,707.667,929.516,727C929.516,746.333,929.516,763.667,929.516,776.5C929.516,789.333,929.516,797.667,929.516,806C929.516,814.333,929.516,822.667,929.516,833C929.516,843.333,929.516,855.667,929.516,868C929.516,880.333,929.516,892.667,929.516,903C929.516,913.333,929.516,921.667,929.516,930C929.516,938.333,929.516,946.667,929.516,959.5C929.516,972.333,929.516,989.667,929.516,1007C929.516,1024.333,929.516,1041.667,929.516,1054.5C929.516,1067.333,929.516,1075.667,929.516,1084C929.516,1092.333,929.516,1100.667,929.516,1109C929.516,1117.333,929.516,1125.667,929.516,1134C929.516,1142.333,929.516,1150.667,929.516,1163.5C929.516,1176.333,929.516,1193.667,929.516,1213C929.516,1232.333,929.516,1253.667,935.914,1270.056C942.312,1286.444,955.109,1297.889,961.507,1303.611L967.905,1309.333" id="L_E2_J1_0" class="edge-thickness-normal edge-pattern-solid edge-thickness-normal edge-pattern-solid flowchart-link" style=";" data-edge="true" data-et="edge" data-id="L_E2_J1_0" data-points="W3sieCI6OTE3LjgzNjc5MTk5MjE4NzUsInkiOjQ0M30seyJ4Ijo5MjkuNTE1NjI1LCJ5Ijo0ODd9LHsieCI6OTI5LjUxNTYyNSwieSI6NTUxfSx7IngiOjkyOS41MTU2MjUsInkiOjYwM30seyJ4Ijo5MjkuNTE1NjI1LCJ5Ijo2Mjh9LHsieCI6OTI5LjUxNTYyNSwieSI6NjY1fSx7IngiOjkyOS41MTU2MjUsInkiOjcyOX0seyJ4Ijo5MjkuNTE1NjI1LCJ5Ijo3ODF9LHsieCI6OTI5LjUxNTYyNSwieSI6ODA2fSx7IngiOjkyOS41MTU2MjUsInkiOjgzMX0seyJ4Ijo5MjkuNTE1NjI1LCJ5Ijo4Njh9LHsieCI6OTI5LjUxNTYyNSwieSI6OTA1fSx7IngiOjkyOS41MTU2MjUsInkiOjkzMH0seyJ4Ijo5MjkuNTE1NjI1LCJ5Ijo5NTV9LHsieCI6OTI5LjUxNTYyNSwieSI6MTAwN30seyJ4Ijo5MjkuNTE1NjI1LCJ5IjoxMDU5fSx7IngiOjkyOS41MTU2MjUsInkiOjEwODR9LHsieCI6OTI5LjUxNTYyNSwieSI6MTEwOX0seyJ4Ijo5MjkuNTE1NjI1LCJ5IjoxMTM0fSx7IngiOjkyOS41MTU2MjUsInkiOjExNTl9LHsieCI6OTI5LjUxNTYyNSwieSI6MTIxMX0seyJ4Ijo5MjkuNTE1NjI1LCJ5IjoxMjc1fSx7IngiOjk3MC44ODY1NjYxNjIxMDk0LCJ5IjoxMzEyfV0=" marker-end="url(#my-svg_flowchart-v2-pointEnd)"/><path d="M1014.984,1238L1014.984,1244.167C1014.984,1250.333,1014.984,1262.667,1013.786,1274.349C1012.587,1286.03,1010.19,1297.061,1008.992,1302.576L1007.793,1308.091" id="L_L1_J1_0" class="edge-thickness-normal edge-pattern-solid edge-thickness-normal edge-pattern-solid flowchart-link" style=";" data-edge="true" data-et="edge" data-id="L_L1_J1_0" data-points="W3sieCI6MTAxNC45ODQzNzUsInkiOjEyMzh9LHsieCI6MTAxNC45ODQzNzUsInkiOjEyNzV9LHsieCI6MTAwNi45NDM2OTUwNjgzNTk0LCJ5IjoxMzEyfV0=" marker-end="url(#my-svg_flowchart-v2-pointEnd)"/><path d="M1165.41,1230.5L1165.41,1237.917C1165.41,1245.333,1165.41,1260.167,1149.47,1273.791C1133.529,1287.416,1101.648,1299.832,1085.708,1306.04L1069.768,1312.248" id="L_M1_J1_0" class="edge-thickness-normal edge-pattern-solid edge-thickness-normal edge-pattern-solid flowchart-link" style=";" data-edge="true" data-et="edge" data-id="L_M1_J1_0" data-points="W3sieCI6MTE2NS40MTAxNTYyNSwieSI6MTIzMC41fSx7IngiOjExNjUuNDEwMTU2MjUsInkiOjEyNzV9LHsieCI6MTA2OS43Njc1NzgxMjUsInkiOjEzMTIuMjQ4MDc3NTg1ODk5NH1d" marker-end="url(#my-svg_flowchart-v2-circleEnd)"/></g><g class="edgeLabels"><g class="edgeLabel" transform="translate(537.78125, 487)"><g class="label" data-id="L_B2_C2_0" transform="translate(-31.9453125, -12)"><foreignObject width="63.890625" height="24"><div xmlns="http://www.w3.org/1999/xhtml" class="labelBkg" style="display: table-cell; white-space: nowrap; line-height: 1.5; max-width: 200px; text-align: center;"><span class="edgeLabel"><p>Rejected</p></span></div></foreignObject></g></g><g class="edgeLabel" transform="translate(912, 259)"><g class="label" data-id="L_B2_E2_0" transform="translate(-33.453125, -12)"><foreignObject width="66.90625" height="24"><div xmlns="http://www.w3.org/1999/xhtml" class="labelBkg" style="display: table-cell; white-space: nowrap; line-height: 1.5; max-width: 200px; text-align: center;"><span class="edgeLabel"><p>Accepted</p></span></div></foreignObject></g></g><g class="edgeLabel" transform="translate(679.1875, 551)"><g class="label" data-id="L_E2_C2_0" transform="translate(-31.9453125, -12)"><foreignObject width="63.890625" height="24"><div xmlns="http://www.w3.org/1999/xhtml" class="labelBkg" style="display: table-cell; white-space: nowrap; line-height: 1.5; max-width: 200px; text-align: center;"><span class="edgeLabel"><p>Rejected</p></span></div></foreignObject></g></g><g class="edgeLabel"><g class="label" data-id="L_F2_C2_0" transform="translate(0, 0)"><foreignObject width="0" height="0"><div xmlns="http://www.w3.org/1999/xhtml" class="labelBkg" style="display: table-cell; white-space: nowrap; line-height: 1.5; max-width: 200px; text-align: center;"><span class="edgeLabel"></span></div></foreignObject></g></g><g class="edgeLabel" transform="translate(1180.380859375, 487)"><g class="label" data-id="L_E2_F1_0" transform="translate(-49.15625, -12)"><foreignObject width="98.3125" height="24"><div xmlns="http://www.w3.org/1999/xhtml" class="labelBkg" style="display: table-cell; white-space: nowrap; line-height: 1.5; max-width: 200px; text-align: center;"><span class="edgeLabel"><p>Light vehicles</p></span></div></foreignObject></g></g><g class="edgeLabel" transform="translate(816.25, 487)"><g class="label" data-id="L_E2_F2_0" transform="translate(-31.6875, -12)"><foreignObject width="63.375" height="24"><div xmlns="http://www.w3.org/1999/xhtml" class="labelBkg" style="display: table-cell; white-space: nowrap; line-height: 1.5; max-width: 200px; text-align: center;"><span class="edgeLabel"><p>Reusable</p></span></div></foreignObject></g></g><g class="edgeLabel"><g class="label" data-id="L_AA1_A1_0" transform="translate(0, 0)"><foreignObject width="0" height="0"><div xmlns="http://www.w3.org/1999/xhtml" class="labelBkg" style="display: table-cell; white-space: nowrap; line-height: 1.5; max-width: 200px; text-align: center;"><span class="edgeLabel"></span></div></foreignObject></g></g><g class="edgeLabel"><g class="label" data-id="L_A1_B1_0" transform="translate(0, 0)"><foreignObject width="0" height="0"><div xmlns="http://www.w3.org/1999/xhtml" class="labelBkg" style="display: table-cell; white-space: nowrap; line-height: 1.5; max-width: 200px; text-align: center;"><span class="edgeLabel"></span></div></foreignObject></g></g><g class="edgeLabel" transform="translate(157.771484375, 868)"><g class="label" data-id="L_B1_C1_0" transform="translate(-31.9453125, -12)"><foreignObject width="63.890625" height="24"><div xmlns="http://www.w3.org/1999/xhtml" class="labelBkg" style="display: table-cell; white-space: nowrap; line-height: 1.5; max-width: 200px; text-align: center;"><span class="edgeLabel"><p>Rejected</p></span></div></foreignObject></g></g><g class="edgeLabel" transform="translate(1400.806640625, 665)"><g class="label" data-id="L_E2_F3_0" transform="translate(-52.9296875, -12)"><foreignObject width="105.859375" height="24"><div xmlns="http://www.w3.org/1999/xhtml" class="labelBkg" style="display: table-cell; white-space: nowrap; line-height: 1.5; max-width: 200px; text-align: center;"><span class="edgeLabel"><p>Heavy vehicles</p></span></div></foreignObject></g></g><g class="edgeLabel"><g class="label" data-id="L_F1_F3_0" transform="translate(0, 0)"><foreignObject width="0" height="0"><div xmlns="http://www.w3.org/1999/xhtml" class="labelBkg" style="display: table-cell; white-space: nowrap; line-height: 1.5; max-width: 200px; text-align: center;"><span class="edgeLabel"></span></div></foreignObject></g></g><g class="edgeLabel"><g class="label" data-id="L_F3_G2_0" transform="translate(0, 0)"><foreignObject width="0" height="0"><div xmlns="http://www.w3.org/1999/xhtml" class="labelBkg" style="display: table-cell; white-space: nowrap; line-height: 1.5; max-width: 200px; text-align: center;"><span class="edgeLabel"></span></div></foreignObject></g></g><g class="edgeLabel" transform="translate(1498.9375, 1275)"><g class="label" data-id="L_G2_H2_0" transform="translate(-43.72265625, -12)"><foreignObject width="87.4453125" height="24"><div xmlns="http://www.w3.org/1999/xhtml" class="labelBkg" style="display: table-cell; white-space: nowrap; line-height: 1.5; max-width: 200px; text-align: center;"><span class="edgeLabel"><p>Recoverable</p></span></div></foreignObject></g></g><g class="edgeLabel"><g class="label" data-id="L_B1_J1_0" transform="translate(0, 0)"><foreignObject width="0" height="0"><div xmlns="http://www.w3.org/1999/xhtml" class="labelBkg" style="display: table-cell; white-space: nowrap; line-height: 1.5; max-width: 200px; text-align: center;"><span class="edgeLabel"></span></div></foreignObject></g></g><g class="edgeLabel"><g class="label" data-id="L_F1_J1_0" transform="translate(0, 0)"><foreignObject width="0" height="0"><div xmlns="http://www.w3.org/1999/xhtml" class="labelBkg" style="display: table-cell; white-space: nowrap; line-height: 1.5; max-width: 200px; text-align: center;"><span class="edgeLabel"></span></div></foreignObject></g></g><g class="edgeLabel" transform="translate(1272.11934, 1296.11906)"><g class="label" data-id="L_G2_J1_0" transform="translate(-29.60546875, -12)"><foreignObject width="59.2109375" height="24"><div xmlns="http://www.w3.org/1999/xhtml" class="labelBkg" style="display: table-cell; white-space: nowrap; line-height: 1.5; max-width: 200px; text-align: center;"><span class="edgeLabel"><p>Residual</p></span></div></foreignObject></g></g><g class="edgeLabel" transform="translate(929.515625, 868)"><g class="label" data-id="L_E2_J1_0" transform="translate(-49.23046875, -12)"><foreignObject width="98.4609375" height="24"><div xmlns="http://www.w3.org/1999/xhtml" class="labelBkg" style="display: table-cell; white-space: nowrap; line-height: 1.5; max-width: 200px; text-align: center;"><span class="edgeLabel"><p>Special Waste</p></span></div></foreignObject></g></g><g class="edgeLabel"><g class="label" data-id="L_L1_J1_0" transform="translate(0, 0)"><foreignObject width="0" height="0"><div xmlns="http://www.w3.org/1999/xhtml" class="labelBkg" style="display: table-cell; white-space: nowrap; line-height: 1.5; max-width: 200px; text-align: center;"><span class="edgeLabel"></span></div></foreignObject></g></g><g class="edgeLabel"><g class="label" data-id="L_M1_J1_0" transform="translate(0, 0)"><foreignObject width="0" height="0"><div xmlns="http://www.w3.org/1999/xhtml" class="labelBkg" style="display: table-cell; white-space: nowrap; line-height: 1.5; max-width: 200px; text-align: center;"><span class="edgeLabel"></span></div></foreignObject></g></g></g><g class="nodes"><g class="node default Mountains" id="flowchart-B2-0" transform="translate(728.96484375, 152.5)"><polygon points="9.75,0 140.7265625,0 150.4765625,-19.5 140.7265625,-39 9.75,-39 0,-19.5" class="label-container" transform="translate(-75.23828125,19.5)"/><g class="label" style="" transform="translate(-57.98828125, -12)"><rect/><foreignObject width="115.9765625" height="24"><div xmlns="http://www.w3.org/1999/xhtml" style="display: table-cell; white-space: nowrap; line-height: 1.5; max-width: 200px; text-align: center;"><span class="nodeLabel"><p>Initial Screening</p></span></div></foreignObject></g></g><g class="node default Mountains" id="flowchart-C2-2" transform="translate(716.162109375, 729)"><polygon points="0,0 88.421875,0 115.421875,-54 -27,-54" class="label-container" transform="translate(-44.2109375,27)"/><g class="label" style="" transform="translate(-29.2109375, -12)"><rect/><foreignObject width="58.421875" height="24"><div xmlns="http://www.w3.org/1999/xhtml" style="display: table-cell; white-space: nowrap; line-height: 1.5; max-width: 200px; text-align: center;"><span class="nodeLabel"><p>Exit site</p></span></div></foreignObject></g></g><g class="node default Mountains" id="flowchart-E2-4" transform="translate(912, 423)"><polygon points="9.75,0 172.0390625,0 181.7890625,-19.5 172.0390625,-39 9.75,-39 0,-19.5" class="label-container" transform="translate(-90.89453125,19.5)"/><g class="label" style="" transform="translate(-73.64453125, -12)"><rect/><foreignObject width="147.2890625" height="24"><div xmlns="http://www.w3.org/1999/xhtml" style="display: table-cell; white-space: nowrap; line-height: 1.5; max-width: 200px; text-align: center;"><span class="nodeLabel"><p>Secondary Screening</p></span></div></foreignObject></g></g><g class="node default Mountains" id="flowchart-F2-7" transform="translate(816.25, 551)"><rect class="basic label-container" style="" x="-70.1171875" y="-27" width="140.234375" height="54"/><g class="label" style="" transform="translate(-40.1171875, -12)"><rect/><foreignObject width="80.234375" height="24"><div xmlns="http://www.w3.org/1999/xhtml" style="display: table-cell; white-space: nowrap; line-height: 1.5; max-width: 200px; text-align: center;"><span class="nodeLabel"><p>Reuse Shed</p></span></div></foreignObject></g></g><g class="node default Mountains" id="flowchart-F1-10" transform="translate(1180.380859375, 551)"><rect class="basic label-container" style="" x="-112.89453125" y="-27" width="225.7890625" height="54"/><g class="label" style="" transform="translate(-82.89453125, -12)"><rect/><foreignObject width="165.7890625" height="24"><div xmlns="http://www.w3.org/1999/xhtml" style="display: table-cell; white-space: nowrap; line-height: 1.5; max-width: 200px; text-align: center;"><span class="nodeLabel"><p>Small Vehicle Area Bins</p></span></div></foreignObject></g></g><g class="node default Canyon" id="flowchart-AA1-13" transform="translate(175.876953125, 423)"><rect class="basic label-container" style="" x="-87.46875" y="-27" width="174.9375" height="54"/><g class="label" style="" transform="translate(-57.46875, -12)"><rect/><foreignObject width="114.9375" height="24"><div xmlns="http://www.w3.org/1999/xhtml" style="display: table-cell; white-space: nowrap; line-height: 1.5; max-width: 200px; text-align: center;"><span class="nodeLabel"><p>Resident sorting</p></span></div></foreignObject></g></g><g class="node default Canyon" id="flowchart-A1-14" transform="translate(175.876953125, 551)"><rect class="basic label-container" style="" x="-99.2734375" y="-27" width="198.546875" height="54"/><g class="label" style="" transform="translate(-69.2734375, -12)"><rect/><foreignObject width="138.546875" height="24"><div xmlns="http://www.w3.org/1999/xhtml" style="display: table-cell; white-space: nowrap; line-height: 1.5; max-width: 200px; text-align: center;"><span class="nodeLabel"><p>Kerbside Collection</p></span></div></foreignObject></g></g><g class="node default Canyon" id="flowchart-B1-16" transform="translate(175.876953125, 729)"><polygon points="9.75,0 171.4140625,0 181.1640625,-19.5 171.4140625,-39 9.75,-39 0,-19.5" class="label-container" transform="translate(-90.58203125,19.5)"/><g class="label" style="" transform="translate(-73.33203125, -12)"><rect/><foreignObject width="146.6640625" height="24"><div xmlns="http://www.w3.org/1999/xhtml" style="display: table-cell; white-space: nowrap; line-height: 1.5; max-width: 200px; text-align: center;"><span class="nodeLabel"><p>Collection Screening</p></span></div></foreignObject></g></g><g class="node default Canyon" id="flowchart-C1-18" transform="translate(157.771484375, 1007)"><polygon points="0,0 126.5390625,0 153.5390625,-54 -27,-54" class="label-container" transform="translate(-63.26953125,27)"/><g class="label" style="" transform="translate(-48.26953125, -12)"><rect/><foreignObject width="96.5390625" height="24"><div xmlns="http://www.w3.org/1999/xhtml" style="display: table-cell; white-space: nowrap; line-height: 1.5; max-width: 200px; text-align: center;"><span class="nodeLabel"><p>Not collected</p></span></div></foreignObject></g></g><g class="node default Bush" id="flowchart-F3-20" transform="translate(1482.66796875, 1007)"><rect class="basic label-container" style="" x="-66.0078125" y="-27" width="132.015625" height="54"/><g class="label" style="" transform="translate(-36.0078125, -12)"><rect/><foreignObject width="72.015625" height="24"><div xmlns="http://www.w3.org/1999/xhtml" style="display: table-cell; white-space: nowrap; line-height: 1.5; max-width: 200px; text-align: center;"><span class="nodeLabel"><p>Stockpiles</p></span></div></foreignObject></g></g><g class="node default Bush" id="flowchart-G2-24" transform="translate(1482.66796875, 1211)"><polygon points="9.75,0 154.6015625,0 164.3515625,-19.5 154.6015625,-39 9.75,-39 0,-19.5" class="label-container" transform="translate(-82.17578125,19.5)"/><g class="label" style="" transform="translate(-64.92578125, -12)"><rect/><foreignObject width="129.8515625" height="24"><div xmlns="http://www.w3.org/1999/xhtml" style="display: table-cell; white-space: nowrap; line-height: 1.5; max-width: 200px; text-align: center;"><span class="nodeLabel"><p>Tertiary Screening</p></span></div></foreignObject></g></g><g class="node default Bush" id="flowchart-H2-26" transform="translate(1498.9375, 1339)"><polygon points="0,0 157.015625,0 184.015625,-54 -27,-54" class="label-container" transform="translate(-78.5078125,27)"/><g class="label" style="" transform="translate(-63.5078125, -12)"><rect/><foreignObject width="127.015625" height="24"><div xmlns="http://www.w3.org/1999/xhtml" style="display: table-cell; white-space: nowrap; line-height: 1.5; max-width: 200px; text-align: center;"><span class="nodeLabel"><p>Transport Off Site</p></span></div></foreignObject></g></g><g class="node default Earth" id="flowchart-J1-28" transform="translate(1001.076171875, 1339)"><rect class="basic label-container" style="" x="-68.69140625" y="-27" width="137.3828125" height="54"/><g class="label" style="" transform="translate(-38.69140625, -12)"><rect/><foreignObject width="77.3828125" height="24"><div xmlns="http://www.w3.org/1999/xhtml" style="display: table-cell; white-space: nowrap; line-height: 1.5; max-width: 200px; text-align: center;"><span class="nodeLabel"><p>Active Cell</p></span></div></foreignObject></g></g><g class="node default Earth" id="flowchart-L1-35" transform="translate(1014.984375, 1211)"><rect class="basic label-container" style="" x="-50.46875" y="-27" width="100.9375" height="54"/><g class="label" style="" transform="translate(-20.46875, -12)"><rect/><foreignObject width="40.9375" height="24"><div xmlns="http://www.w3.org/1999/xhtml" style="display: table-cell; white-space: nowrap; line-height: 1.5; max-width: 200px; text-align: center;"><span class="nodeLabel"><p>Cover</p></span></div></foreignObject></g></g><g class="node default" id="flowchart-M1-37" transform="translate(1165.41015625, 1211)"><rect class="text" style="" rx="0" ry="0" x="-49.95703125" y="-19.5" width="99.9140625" height="39"/><g class="label" style="" transform="translate(-42.45703125, -12)"><rect/><foreignObject width="84.9140625" height="24"><div xmlns="http://www.w3.org/1999/xhtml" style="display: table-cell; white-space: nowrap; line-height: 1.5; max-width: 200px; text-align: center;"><span class="nodeLabel"><p>Compaction</p></span></div></foreignObject></g></g></g></g></g></svg>
